<?xml version="1.0" encoding="UTF-8" standalone="no"?>
<svg
   xmlns:dc="http://purl.org/dc/elements/1.1/"
   xmlns:cc="http://creativecommons.org/ns#"
   xmlns:rdf="http://www.w3.org/1999/02/22-rdf-syntax-ns#"
   xmlns:svg="http://www.w3.org/2000/svg"
   xmlns="http://www.w3.org/2000/svg"
   xmlns:sodipodi="http://sodipodi.sourceforge.net/DTD/sodipodi-0.dtd"
   xmlns:inkscape="http://www.inkscape.org/namespaces/inkscape"
   inkscape:version="1.1-dev (f6fa9ae806, 2020-03-03)"
   sodipodi:docname="allelse.svg"
   id="svg10"
   y="0px"
   x="0px"
   version="1.1"
   viewBox="0 0 40.96 40.96"
   fill="#000000"
   width="512"
   height="512">
  <metadata
     id="metadata16">
    <rdf:RDF>
      <cc:Work
         rdf:about="">
        <dc:format>image/svg+xml</dc:format>
        <dc:type
           rdf:resource="http://purl.org/dc/dcmitype/StillImage" />
        <dc:title>icon/settings</dc:title>
      </cc:Work>
    </rdf:RDF>
  </metadata>
  <defs
     id="defs14" />
  <sodipodi:namedview
     inkscape:current-layer="svg10"
     inkscape:window-maximized="1"
     inkscape:window-y="0"
     inkscape:window-x="0"
     inkscape:cy="150"
     inkscape:cx="150"
     inkscape:zoom="2.1833333"
     height="512px"
     showgrid="false"
     id="namedview12"
     inkscape:window-height="995"
     inkscape:window-width="1920"
     inkscape:pageshadow="2"
     inkscape:pageopacity="0"
     guidetolerance="10"
     gridtolerance="10"
     objecttolerance="10"
     borderopacity="1"
     bordercolor="#666666"
     pagecolor="#ffffff" />
  <title
     id="title2">icon/settings</title>
  <desc
     id="desc4">Created with Sketch.</desc>
  <g
     style="fill:#ffffff;fill-opacity:1"
     transform="matrix(1.33333,0,0,1.33333,5.146705,5.146705)"
     id="g8"
     fill-rule="evenodd"
     fill="none"
     stroke-width="1"
     stroke="none">
    <path
       style="fill:#ffffff;fill-opacity:1"
       inkscape:connector-curvature="0"
       id="path6"
       fill-rule="nonzero"
       fill="#000000"
       d="M 11.5,8 C 13.433142,8 15,9.5668576 15,11.5 15,13.433142 13.433142,15 11.5,15 9.5668576,15 8,13.433142 8,11.5 8,9.5668576 9.5668576,8 11.5,8 Z m 0,1 C 10.119142,9 9,10.119142 9,11.5 9,12.880858 10.119142,14 11.5,14 12.880858,14 14,12.880858 14,11.5 14,10.119142 12.880858,9 11.5,9 Z m 5.804447,6.183553 c -0.156708,-0.156707 -0.191562,-0.397874 -0.08563,-0.592538 0.2068,-0.380041 0.376066,-0.792409 0.508133,-1.234216 C 17.790236,13.145069 17.985013,13 18.206,13 H 20 V 10 H 18.206 C 17.985013,10 17.790236,9.8549307 17.726945,9.6432013 17.594878,9.2013941 17.425612,8.7890259 17.218812,8.4089853 17.112885,8.214321 17.147739,7.9731545 17.304447,7.8164466 L 18.570893,6.55 16.45,4.4291068 15.183553,5.6955534 C 15.027087,5.8520201 14.786384,5.8870333 14.591825,5.7816277 14.206606,5.5729295 13.792907,5.4024182 13.356799,5.2720547 13.145069,5.2087635 13,5.0139866 13,4.793 V 3 H 10 V 4.793 C 10,5.0139866 9.8549307,5.2087635 9.6432013,5.2720547 9.2070933,5.4024182 8.7933935,5.5729295 8.4081754,5.7816277 8.2136161,5.8870333 7.9729133,5.8520201 7.8164466,5.6955534 L 6.55,4.4291068 4.4291068,6.55 5.6955534,7.8164466 C 5.8522613,7.9731545 5.887115,8.214321 5.7811879,8.4089853 5.5743878,8.7890259 5.4051218,9.2013941 5.2730547,9.6432013 5.2097635,9.8549307 5.0149866,10 4.794,10 H 3 v 3 h 1.794 c 0.2209866,0 0.4157635,0.145069 0.4790547,0.356799 0.1320671,0.441807 0.3013331,0.854175 0.5081332,1.234216 0.1059271,0.194664 0.071073,0.435831 -0.085635,0.592538 L 4.4291068,16.45 6.55,18.570893 7.8164466,17.304447 C 7.9729133,17.14798 8.2136161,17.112967 8.4081754,17.218372 8.7941595,17.427485 9.2077036,17.5977 9.6422547,17.726663 9.8544591,17.78964 10,17.984648 10,18.206 V 20 h 3 v -1.794 c 0,-0.221352 0.145541,-0.41636 0.357745,-0.479337 0.434551,-0.128963 0.848096,-0.299178 1.23408,-0.508291 0.194559,-0.105405 0.435262,-0.07039 0.591728,0.08608 L 16.45,18.570893 18.570893,16.45 Z m 0.963771,-0.450442 1.363335,1.363336 c 0.195262,0.195262 0.195262,0.511844 0,0.707106 l -2.828,2.828 c -0.195262,0.195262 -0.511844,0.195262 -0.707106,0 l -1.36353,-1.363529 C 14.495741,18.380884 14.251089,18.481519 14,18.569609 V 20.5 c 0,0.276142 -0.223858,0.5 -0.5,0.5 h -4 C 9.2238576,21 9,20.776142 9,20.5 V 18.569609 C 8.7489114,18.481519 8.5042594,18.380884 8.2670832,18.268024 l -1.3635298,1.363529 c -0.1952622,0.195262 -0.5118446,0.195262 -0.7071068,0 l -2.828,-2.828 c -0.1952621,-0.195262 -0.1952621,-0.511844 0,-0.707106 L 4.7317824,14.733111 C 4.6196158,14.497302 4.519292,14.252756 4.4306724,14 H 2.5 C 2.2238576,14 2,13.776142 2,13.5 v -4 C 2,9.2238576 2.2238576,9 2.5,9 H 4.4306724 C 4.519292,8.7472444 4.6196158,8.5026985 4.7317824,8.2668892 L 3.3684466,6.9035534 c -0.1952621,-0.1952622 -0.1952621,-0.5118446 0,-0.7071068 l 2.828,-2.828 c 0.1952622,-0.1952621 0.5118446,-0.1952621 0.7071068,0 L 8.2670731,4.7319663 C 8.5040023,4.6191922 8.7486352,4.5184383 9,4.4299552 V 2.5 C 9,2.2238576 9.2238576,2 9.5,2 h 4 C 13.776142,2 14,2.2238576 14,2.5 v 1.9299552 c 0.251365,0.088483 0.495998,0.189237 0.732927,0.3020111 l 1.36352,-1.3635197 c 0.195262,-0.1952621 0.511844,-0.1952621 0.707106,0 l 2.828,2.828 c 0.195262,0.1952622 0.195262,0.5118446 0,0.7071068 L 18.268218,8.2668892 C 18.380384,8.5026984 18.480708,8.7472444 18.569328,9 H 20.5 C 20.776142,9 21,9.2238576 21,9.5 v 4 c 0,0.276142 -0.223858,0.5 -0.5,0.5 h -1.930672 c -0.08862,0.252756 -0.188944,0.497302 -0.30111,0.733111 z" />
  </g>
</svg>
