<?xml version="1.0" encoding="UTF-8" standalone="no"?>
<svg
   xmlns:dc="http://purl.org/dc/elements/1.1/"
   xmlns:cc="http://creativecommons.org/ns#"
   xmlns:rdf="http://www.w3.org/1999/02/22-rdf-syntax-ns#"
   xmlns:svg="http://www.w3.org/2000/svg"
   xmlns="http://www.w3.org/2000/svg"
   xmlns:xlink="http://www.w3.org/1999/xlink"
   xmlns:sodipodi="http://sodipodi.sourceforge.net/DTD/sodipodi-0.dtd"
   xmlns:inkscape="http://www.inkscape.org/namespaces/inkscape"
   width="512"
   height="512"
   viewBox="0 0 512 512"
   version="1.1"
   id="svg8"
   inkscape:version="1.1-dev (f6fa9ae806, 2020-03-03)"
   sodipodi:docname="ckgold-g.svg"
   inkscape:export-filename="/home/colek/Pictures/Logos/ckgold.png"
   inkscape:export-xdpi="96.000008"
   inkscape:export-ydpi="96.000008">
  <defs
     id="defs2">
    <linearGradient
       id="linearGradient6017-3"
       inkscape:collect="always">
      <stop
         id="stop6011"
         offset="0"
         style="stop-color:#ff4e21;stop-opacity:1" />
      <stop
         id="stop6015"
         offset="1"
         style="stop-color:#ffd621;stop-opacity:1" />
    </linearGradient>
    <linearGradient
       inkscape:collect="always"
       id="linearGradient4709">
      <stop
         style="stop-color:#21c2ff;stop-opacity:1"
         offset="0"
         id="stop4705" />
      <stop
         id="stop4713"
         offset="0.5"
         style="stop-color:#90a990;stop-opacity:1;" />
      <stop
         style="stop-color:#ff9021;stop-opacity:1"
         offset="1"
         id="stop4707" />
    </linearGradient>
    <linearGradient
       inkscape:collect="always"
       xlink:href="#linearGradient4709"
       id="linearGradient4711"
       x1="256"
       y1="225.53333"
       x2="256"
       y2="609.53333"
       gradientUnits="userSpaceOnUse"
       gradientTransform="translate(-60,-161.53332)" />
    <linearGradient
       inkscape:collect="always"
       xlink:href="#linearGradient6017-3"
       id="linearGradient6029"
       x1="240"
       y1="449.53333"
       x2="240"
       y2="321.53333"
       gradientUnits="userSpaceOnUse" />
    <linearGradient
       inkscape:collect="always"
       xlink:href="#linearGradient6017-3"
       id="linearGradient6036"
       gradientUnits="userSpaceOnUse"
       x1="240"
       y1="449.53333"
       x2="240"
       y2="321.53333"
       gradientTransform="matrix(1.5915198,0,0,1.5915198,139.50252,-193.23514)" />
    <linearGradient
       inkscape:collect="always"
       xlink:href="#linearGradient6017-3"
       id="linearGradient6040"
       gradientUnits="userSpaceOnUse"
       x1="240"
       y1="449.53333"
       x2="240"
       y2="321.53333" />
  </defs>
  <sodipodi:namedview
     id="base"
     pagecolor="#ffffff"
     bordercolor="#666666"
     borderopacity="1.0"
     inkscape:pageopacity="0.0"
     inkscape:pageshadow="2"
     inkscape:zoom="0.7"
     inkscape:cx="-322.25712"
     inkscape:cy="185.83502"
     inkscape:document-units="px"
     inkscape:current-layer="text6021"
     showgrid="true"
     units="px"
     inkscape:window-width="1920"
     inkscape:window-height="995"
     inkscape:window-x="0"
     inkscape:window-y="0"
     inkscape:window-maximized="1">
    <inkscape:grid
       type="xygrid"
       id="grid4485"
       empspacing="16" />
  </sodipodi:namedview>
  <metadata
     id="metadata5">
    <rdf:RDF>
      <cc:Work
         rdf:about="">
        <dc:format>image/svg+xml</dc:format>
        <dc:type
           rdf:resource="http://purl.org/dc/dcmitype/StillImage" />
        <dc:title />
      </cc:Work>
    </rdf:RDF>
  </metadata>
  <g
     inkscape:label="Layer 1"
     inkscape:groupmode="layer"
     id="layer1"
     transform="translate(0,-161.53332)">
    <g
       aria-label="CK"
       style="font-style:normal;font-variant:normal;font-weight:normal;font-stretch:normal;font-size:16px;line-height:1.25;font-family:Arial;-inkscape-font-specification:Arial;letter-spacing:-85px;word-spacing:0px;fill:url(#linearGradient6040);fill-opacity:1;stroke:none"
       id="text6021"
       transform="matrix(2.1542777,0,0,2.1542777,-222.38425,-364.58614)">
      <path
         style="font-style:normal;font-variant:normal;font-weight:normal;font-stretch:normal;font-size:16px;line-height:1.25;font-family:Arial;-inkscape-font-specification:Arial;letter-spacing:-85px;word-spacing:0px;opacity:1;fill:#ff4e21;fill-opacity:1;stroke:none;stroke-width:1.85677087;stroke-linecap:round;stroke-linejoin:round;stroke-miterlimit:4;stroke-dasharray:none;stroke-dashoffset:0;stroke-opacity:1"
         id="path6157-0"
         r="74.270836"
         cy="318.49167"
         cx="177.5"
         d=""
         inkscape:connector-curvature="0" />
      <path
         style="color:#000000;font-style:normal;font-variant:normal;font-weight:normal;font-stretch:normal;font-size:medium;line-height:1.25;font-family:Arial;-inkscape-font-specification:Arial;font-variant-ligatures:normal;font-variant-position:normal;font-variant-caps:normal;font-variant-numeric:normal;font-variant-alternates:normal;font-feature-settings:normal;text-indent:0;text-align:start;text-decoration:none;text-decoration-line:none;text-decoration-style:solid;text-decoration-color:#000000;letter-spacing:-85px;word-spacing:0px;text-transform:none;writing-mode:lr-tb;direction:ltr;text-orientation:mixed;dominant-baseline:auto;baseline-shift:baseline;text-anchor:start;white-space:normal;shape-padding:0;clip-rule:nonzero;display:inline;overflow:visible;visibility:visible;opacity:1;isolation:auto;mix-blend-mode:normal;color-interpolation:sRGB;color-interpolation-filters:linearRGB;solid-color:#000000;solid-opacity:1;vector-effect:none;fill:#bbbbbb;fill-opacity:1;fill-rule:nonzero;stroke:none;stroke-width:37.13541794;stroke-linecap:round;stroke-linejoin:miter;stroke-miterlimit:10;stroke-dasharray:none;stroke-dashoffset:0;stroke-opacity:1;color-rendering:auto;image-rendering:auto;shape-rendering:auto;text-rendering:auto;enable-background:accumulate"
         d="m 221.80682,455.84505 c -26.61209,-0.11018 -52.8132,-11.60364 -70.86374,-33.11544 -28.88087,-34.41886 -28.88087,-84.93213 0,-119.35101 28.88088,-34.41888 78.62849,-43.1899 117.53958,-20.72458 a 18.569566,18.569566 0 1 1 -18.56861,32.15985 c -23.51751,-13.57784 -53.06841,-8.36716 -70.52375,12.43529 -17.45533,20.80246 -17.45533,50.80925 0,71.6117 17.45534,20.80246 47.00624,26.01131 70.52375,12.43348 a 18.569566,18.569566 0 1 1 18.56861,32.15985 c -14.59166,8.4245 -30.70859,12.45696 -46.67584,12.39086 z m 0.0118,-6.94295 c 14.76585,0.0582 29.67241,-3.67739 43.1817,-11.47698 A 11.605978,11.605978 0 1 0 253.3946,417.32521 c -26.4038,15.24424 -59.74035,9.36539 -79.33797,-13.99015 -19.59762,-23.35553 -19.59762,-57.20637 0,-80.56191 19.59762,-23.35553 52.93417,-29.23258 79.33797,-13.98834 a 11.605978,11.605978 0 1 0 11.60572,-20.09991 c -36.02479,-20.79892 -81.98406,-12.69609 -108.72264,19.16971 -26.73857,31.8658 -26.73858,78.53501 0,110.4008 16.71162,19.91613 40.93119,30.54969 65.54093,30.64669 z m 0.0118,-6.94385 c -22.6074,-0.0838 -44.84635,-9.85931 -60.21904,-28.17976 -24.59628,-29.31272 -24.59628,-72.13424 0,-101.44696 24.59629,-29.31272 66.76993,-36.75008 99.90842,-17.61756 a 4.6423913,4.6423913 0 1 1 -4.64283,8.03905 c -29.2901,-16.91063 -66.41228,-10.36359 -88.15219,15.54502 -21.73991,25.90862 -21.73991,63.60533 0,89.51394 21.73991,25.90862 58.8621,32.45386 88.15219,15.54321 a 4.6425087,4.6425087 0 1 1 4.64283,8.04086 c -12.42693,7.1747 -26.12494,10.6125 -39.68938,10.5622 z"
         id="path4511"
         inkscape:connector-curvature="0" />
    </g>
  </g>
</svg>
