<?xml version="1.0" encoding="UTF-8" standalone="no"?>
<svg
   xmlns:dc="http://purl.org/dc/elements/1.1/"
   xmlns:cc="http://creativecommons.org/ns#"
   xmlns:rdf="http://www.w3.org/1999/02/22-rdf-syntax-ns#"
   xmlns:svg="http://www.w3.org/2000/svg"
   xmlns="http://www.w3.org/2000/svg"
   xmlns:xlink="http://www.w3.org/1999/xlink"
   xmlns:sodipodi="http://sodipodi.sourceforge.net/DTD/sodipodi-0.dtd"
   xmlns:inkscape="http://www.inkscape.org/namespaces/inkscape"
   inkscape:export-ydpi="96.000008"
   inkscape:export-xdpi="96.000008"
   inkscape:export-filename="/home/colek/Pictures/Logos/ckgold.png"
   sodipodi:docname="ckgold-s.svg"
   inkscape:version="1.1-dev (f6fa9ae806, 2020-03-03)"
   id="svg8"
   version="1.1"
   viewBox="0 0 512 512"
   height="512"
   width="512">
  <defs
     id="defs2">
    <linearGradient
       inkscape:collect="always"
       id="linearGradient6017-3">
      <stop
         style="stop-color:#ff4e21;stop-opacity:1"
         offset="0"
         id="stop6011" />
      <stop
         style="stop-color:#ffd621;stop-opacity:1"
         offset="1"
         id="stop6015" />
    </linearGradient>
    <linearGradient
       id="linearGradient4709"
       inkscape:collect="always">
      <stop
         id="stop4705"
         offset="0"
         style="stop-color:#21c2ff;stop-opacity:1" />
      <stop
         style="stop-color:#90a990;stop-opacity:1;"
         offset="0.5"
         id="stop4713" />
      <stop
         id="stop4707"
         offset="1"
         style="stop-color:#ff9021;stop-opacity:1" />
    </linearGradient>
    <linearGradient
       gradientTransform="translate(-60,-161.53332)"
       gradientUnits="userSpaceOnUse"
       y2="609.53333"
       x2="256"
       y1="225.53333"
       x1="256"
       id="linearGradient4711"
       xlink:href="#linearGradient4709"
       inkscape:collect="always" />
    <linearGradient
       gradientUnits="userSpaceOnUse"
       y2="321.53333"
       x2="240"
       y1="449.53333"
       x1="240"
       id="linearGradient6029"
       xlink:href="#linearGradient6017-3"
       inkscape:collect="always" />
    <linearGradient
       gradientTransform="matrix(1.5915198,0,0,1.5915198,139.50252,-193.23514)"
       y2="321.53333"
       x2="240"
       y1="449.53333"
       x1="240"
       gradientUnits="userSpaceOnUse"
       id="linearGradient6036"
       xlink:href="#linearGradient6017-3"
       inkscape:collect="always" />
    <linearGradient
       y2="321.53333"
       x2="240"
       y1="449.53333"
       x1="240"
       gradientUnits="userSpaceOnUse"
       id="linearGradient6040"
       xlink:href="#linearGradient6017-3"
       inkscape:collect="always" />
    <linearGradient
       gradientTransform="matrix(0.59416676,0,0,-0.59416676,69.955791,515.16134)"
       gradientUnits="userSpaceOnUse"
       y2="512"
       x2="256"
       y1="-6.401714e-006"
       x1="256"
       id="linearGradient4557"
       xlink:href="#linearGradient6017-3"
       inkscape:collect="always" />
  </defs>
  <sodipodi:namedview
     inkscape:window-maximized="1"
     inkscape:window-y="0"
     inkscape:window-x="0"
     inkscape:window-height="995"
     inkscape:window-width="1920"
     units="px"
     showgrid="true"
     inkscape:current-layer="text6021"
     inkscape:document-units="px"
     inkscape:cy="262.41127"
     inkscape:cx="177.62235"
     inkscape:zoom="0.7"
     inkscape:pageshadow="2"
     inkscape:pageopacity="0.0"
     borderopacity="1.0"
     bordercolor="#666666"
     pagecolor="#ffffff"
     id="base">
    <inkscape:grid
       empspacing="16"
       id="grid4485"
       type="xygrid" />
  </sodipodi:namedview>
  <metadata
     id="metadata5">
    <rdf:RDF>
      <cc:Work
         rdf:about="">
        <dc:format>image/svg+xml</dc:format>
        <dc:type
           rdf:resource="http://purl.org/dc/dcmitype/StillImage" />
        <dc:title></dc:title>
      </cc:Work>
    </rdf:RDF>
  </metadata>
  <g
     transform="translate(0,-161.53332)"
     id="layer1"
     inkscape:groupmode="layer"
     inkscape:label="Layer 1">
    <g
       transform="matrix(2.1542777,0,0,2.1542777,-222.38425,-364.58614)"
       id="text6021"
       style="font-style:normal;font-variant:normal;font-weight:normal;font-stretch:normal;font-size:16px;line-height:1.25;font-family:Arial;-inkscape-font-specification:Arial;letter-spacing:-85px;word-spacing:0px;fill:url(#linearGradient6040);fill-opacity:1;stroke:none"
       aria-label="CK">
      <path
         inkscape:connector-curvature="0"
         d=""
         cx="177.5"
         cy="318.49167"
         r="74.270836"
         id="path6157-0"
         style="font-style:normal;font-variant:normal;font-weight:normal;font-stretch:normal;font-size:16px;line-height:1.25;font-family:Arial;-inkscape-font-specification:Arial;letter-spacing:-85px;word-spacing:0px;fill:#ff4e21;fill-opacity:1;stroke:none;stroke-width:2.37667;stroke-linecap:round;stroke-linejoin:round;stroke-miterlimit:4;stroke-dasharray:none;stroke-dashoffset:0;stroke-opacity:1" />
      <path
         inkscape:connector-curvature="0"
         id="path4511"
         d="m 221.73523,481.8265 c -34.06348,-0.14104 -67.6009,-14.85267 -90.7056,-42.38777 -36.967519,-44.05615 -36.967519,-108.71315 0,-152.76932 36.96753,-44.05617 100.64448,-55.28308 150.45069,-26.52747 a 23.769048,23.769048 0 1 1 -23.76783,41.16462 c -30.10242,-17.37964 -67.92757,-10.70997 -90.27041,15.91717 -22.34283,26.62715 -22.34283,65.03585 0,91.66299 22.34284,26.62715 60.16799,33.29448 90.27041,15.91486 a 23.769048,23.769048 0 1 1 23.76783,41.16461 c -18.67733,10.78336 -39.307,15.94491 -59.74509,15.86031 z m 0.0151,-8.88698 c 18.90029,0.0745 37.98069,-4.70706 55.27258,-14.69054 A 14.855654,14.855654 0 1 0 262.1676,432.52109 c -33.79687,19.51263 -76.46766,11.9877 -101.55262,-17.90739 -25.08496,-29.89509 -25.08496,-73.22417 0,-103.11926 25.08496,-29.89509 67.75575,-37.41771 101.55262,-17.90508 a 14.855654,14.855654 0 1 0 14.85532,-25.72789 c -46.11174,-26.62262 -104.93961,-16.251 -139.165,24.53723 -34.22538,40.78823 -34.22539,100.52483 0,141.31305 21.39088,25.49265 52.39193,39.10361 83.8924,39.22777 z m 0.0151,-8.88813 c -28.93748,-0.10727 -57.40334,-12.61992 -77.08038,-36.0701 -31.48325,-37.52029 -31.48325,-92.33184 0,-129.85213 31.48325,-37.52029 85.46552,-47.04011 127.88279,-22.55048 a 5.9422618,5.9422618 0 1 1 -5.94282,10.28999 c -37.49133,-21.64561 -85.00773,-13.2654 -112.83482,19.89762 -27.82709,33.16304 -27.82709,81.41484 0,114.57787 27.82709,33.16303 75.3435,41.54094 112.83482,19.89531 a 5.9424121,5.9424121 0 1 1 5.94282,10.2923 c -15.90647,9.18362 -33.43992,13.584 -50.80241,13.51962 z"
         style="color:#000000;font-style:normal;font-variant:normal;font-weight:normal;font-stretch:normal;font-size:medium;line-height:1.25;font-family:Arial;-inkscape-font-specification:Arial;font-variant-ligatures:normal;font-variant-position:normal;font-variant-caps:normal;font-variant-numeric:normal;font-variant-alternates:normal;font-feature-settings:normal;text-indent:0;text-align:start;text-decoration:none;text-decoration-line:none;text-decoration-style:solid;text-decoration-color:#000000;letter-spacing:-85px;word-spacing:0px;text-transform:none;writing-mode:lr-tb;direction:ltr;text-orientation:mixed;dominant-baseline:auto;baseline-shift:baseline;text-anchor:start;white-space:normal;shape-padding:0;clip-rule:nonzero;display:inline;overflow:visible;visibility:visible;isolation:auto;mix-blend-mode:normal;color-interpolation:sRGB;color-interpolation-filters:linearRGB;solid-color:#000000;solid-opacity:1;vector-effect:none;fill:url(#linearGradient4557);fill-opacity:1;fill-rule:nonzero;stroke:none;stroke-width:47.5333;stroke-linecap:round;stroke-linejoin:miter;stroke-miterlimit:10;stroke-dasharray:none;stroke-dashoffset:0;stroke-opacity:1;color-rendering:auto;image-rendering:auto;shape-rendering:auto;text-rendering:auto;enable-background:accumulate" />
    </g>
  </g>
</svg>
