<?xml version="1.0" encoding="UTF-8" standalone="no"?>
<svg
   xmlns:dc="http://purl.org/dc/elements/1.1/"
   xmlns:cc="http://creativecommons.org/ns#"
   xmlns:rdf="http://www.w3.org/1999/02/22-rdf-syntax-ns#"
   xmlns:svg="http://www.w3.org/2000/svg"
   xmlns="http://www.w3.org/2000/svg"
   xmlns:sodipodi="http://sodipodi.sourceforge.net/DTD/sodipodi-0.dtd"
   xmlns:inkscape="http://www.inkscape.org/namespaces/inkscape"
   inkscape:version="1.1-dev (f6fa9ae806, 2020-03-03)"
   sodipodi:docname="design.svg"
   id="svg10"
   y="0px"
   x="0px"
   version="1.1"
   viewBox="0 0 40.96 40.96"
   fill="#000000"
   width="512"
   height="512">
  <metadata
     id="metadata16">
    <rdf:RDF>
      <cc:Work
         rdf:about="">
        <dc:format>image/svg+xml</dc:format>
        <dc:type
           rdf:resource="http://purl.org/dc/dcmitype/StillImage" />
        <dc:title>icon/design</dc:title>
      </cc:Work>
    </rdf:RDF>
  </metadata>
  <defs
     id="defs14" />
  <sodipodi:namedview
     width="512px"
     inkscape:current-layer="svg10"
     inkscape:window-maximized="1"
     inkscape:window-y="0"
     inkscape:window-x="0"
     inkscape:cy="121.15669"
     inkscape:cx="88.765117"
     inkscape:zoom="0.54583333"
     showgrid="false"
     id="namedview12"
     inkscape:window-height="995"
     inkscape:window-width="1920"
     inkscape:pageshadow="2"
     inkscape:pageopacity="0"
     guidetolerance="10"
     gridtolerance="10"
     objecttolerance="10"
     borderopacity="1"
     bordercolor="#666666"
     pagecolor="#ffffff" />
  <title
     id="title2">icon/design</title>
  <desc
     id="desc4">Created with Sketch.</desc>
  <g
     transform="matrix(1.33333,0,0,1.33333,5.1474053,5.1460426)"
     style="fill:#ffffff;fill-opacity:1"
     id="g8"
     fill-rule="evenodd"
     fill="none"
     stroke-width="1"
     stroke="none">
    <path
       inkscape:connector-curvature="0"
       style="fill:#ffffff;fill-opacity:1"
       id="path6"
       fill-rule="nonzero"
       fill="#000000"
       d="M 7.5,17.792893 17.792893,7.5 15.5,5.2071068 5.2071068,15.5 Z m 3.5,-2.085786 -3.1464466,3.146446 -0.1678581,0.110685 -5,2 C 2.2775394,21.127501 1.8724993,20.722461 2.0357617,20.314305 l 2,-5 L 4.1464466,15.146447 7.2928932,12 2.1464466,6.8535534 c -0.1952621,-0.1952622 -0.1952621,-0.5118446 0,-0.7071068 l 4,-4 c 0.1952622,-0.1952621 0.5118446,-0.1952621 0.7071068,0 L 12,7.2928932 16.853447,2.4394466 c 0.586337,-0.5863376 1.536269,-0.5863376 2.121106,0 L 20.5601,4.0249942 c 0.586791,0.5852899 0.586791,1.5352215 4.53e-4,2.1215592 L 15.707107,11 l 5.146446,5.146447 c 0.195262,0.195262 0.195262,0.511844 0,0.707106 l -4,4 c -0.195262,0.195262 -0.511844,0.195262 -0.707106,0 z M 11.707107,15 16.5,19.792893 19.792893,16.5 18.5,15.207107 17.853553,15.853553 c -0.471404,0.471405 -1.178511,-0.235702 -0.707106,-0.707106 L 17.792893,14.5 16.5,13.207107 14.853553,14.853553 c -0.471404,0.471405 -1.178511,-0.235702 -0.707106,-0.707106 L 15.792893,12.5 15,11.707107 Z M 8,11.292893 11.292893,8 10.5,7.2071068 9.8535534,7.8535534 C 9.3821489,8.3249579 8.6750421,7.6178511 9.1464466,7.1464466 L 9.7928932,6.5 8.5,5.2071068 6.8535534,6.8535534 C 6.3821489,7.3249579 5.6750421,6.6178511 6.1464466,6.1464466 L 7.7928932,4.5 6.5,3.2071068 3.2071068,6.5 Z M 6.6102691,18.317376 4.6826241,16.389731 3.3975275,19.602472 Z M 16.207107,4.5 18.5,6.7928932 19.853447,5.4394466 c 0.195662,-0.1956624 0.195662,-0.5117307 0,-0.7068932 L 18.266994,3.1461004 C 18.072284,2.950891 17.756216,2.950891 17.560553,3.1465534 Z" />
  </g>
</svg>
