<?xml version="1.0" encoding="UTF-8" standalone="no"?>
<svg
   xmlns:dc="http://purl.org/dc/elements/1.1/"
   xmlns:cc="http://creativecommons.org/ns#"
   xmlns:rdf="http://www.w3.org/1999/02/22-rdf-syntax-ns#"
   xmlns:svg="http://www.w3.org/2000/svg"
   xmlns="http://www.w3.org/2000/svg"
   xmlns:sodipodi="http://sodipodi.sourceforge.net/DTD/sodipodi-0.dtd"
   xmlns:inkscape="http://www.inkscape.org/namespaces/inkscape"
   inkscape:version="1.1-dev (f6fa9ae806, 2020-03-03)"
   sodipodi:docname="frontend.svg"
   id="svg10"
   y="0px"
   x="0px"
   version="1.1"
   viewBox="0 0 40.96 40.96"
   fill="#000000"
   width="512"
   height="512">
  <metadata
     id="metadata16">
    <rdf:RDF>
      <cc:Work
         rdf:about="">
        <dc:format>image/svg+xml</dc:format>
        <dc:type
           rdf:resource="http://purl.org/dc/dcmitype/StillImage" />
        <dc:title>icon/world</dc:title>
      </cc:Work>
    </rdf:RDF>
  </metadata>
  <defs
     id="defs14" />
  <sodipodi:namedview
     inkscape:current-layer="svg10"
     inkscape:window-maximized="1"
     inkscape:window-y="0"
     inkscape:window-x="0"
     inkscape:cy="150"
     inkscape:cx="150"
     inkscape:zoom="2.1833333"
     width="512px"
     showgrid="false"
     id="namedview12"
     inkscape:window-height="995"
     inkscape:window-width="1920"
     inkscape:pageshadow="2"
     inkscape:pageopacity="0"
     guidetolerance="10"
     gridtolerance="10"
     objecttolerance="10"
     borderopacity="1"
     bordercolor="#666666"
     pagecolor="#ffffff" />
  <title
     id="title2">icon/world</title>
  <desc
     id="desc4">Created with Sketch.</desc>
  <g
     style="fill:#ffffff;fill-opacity:1"
     transform="matrix(1.3333333,0,0,1.3333333,5.146667,5.146667)"
     id="g8"
     fill-rule="evenodd"
     fill="none"
     stroke-width="1"
     stroke="none">
    <path
       style="fill:#ffffff;fill-opacity:1"
       inkscape:connector-curvature="0"
       id="path6"
       fill-rule="nonzero"
       fill="#000000"
       d="M 11,7.0078338 C 9.7488323,7.0471457 8.5742399,7.2328912 7.5305654,7.5305654 7.2328912,8.5742399 7.0471457,9.7488323 7.0078338,11 H 11 Z m 1,0 V 11 h 3.992166 C 15.952854,9.7488323 15.767109,8.5742399 15.469435,7.5305654 14.42576,7.2328912 13.251168,7.0471457 12,7.0078338 Z M 11,15.992166 V 12 H 7.0078338 c 0.039312,1.251168 0.2250574,2.42576 0.5227316,3.469435 C 8.5742399,15.767109 9.7488323,15.952854 11,15.992166 Z m 1,0 c 1.251168,-0.03931 2.42576,-0.225057 3.469435,-0.522731 C 15.767109,14.42576 15.952854,13.251168 15.992166,12 H 12 Z M 11,6.0073453 V 3.0544251 C 9.7675049,3.3234932 8.654775,4.5721951 7.9177009,6.3975176 8.8786118,6.1744683 9.9165216,6.0392807 11,6.0073498 Z m 1,4.5e-6 c 1.083478,0.031931 2.121388,0.1671185 3.082299,0.3901678 C 14.345225,4.5721951 13.232495,3.3234932 12,3.0544251 v 2.9529202 z m 0,10.9853052 v 2.95292 c 1.232495,-0.269068 2.345225,-1.51777 3.082299,-3.343093 C 14.121388,16.825532 13.083478,16.960719 12,16.99265 Z m -1,-5e-6 C 9.9165216,16.960719 8.8786118,16.825532 7.9177009,16.602482 8.654775,18.427805 9.7675049,19.676507 11,19.945575 v -2.95292 z M 19.945575,11 C 19.676507,9.7675049 18.427805,8.654775 16.602482,7.9177009 16.825532,8.8786118 16.960719,9.9165216 16.99265,11 Z m 0,1 h -2.95292 c -0.03194,1.083478 -0.167123,2.121388 -0.390173,3.082299 C 18.427805,14.345225 19.676507,13.232495 19.945575,12 Z M 3.0544251,11 H 6.0073453 C 6.0392807,9.9165216 6.1744683,8.8786118 6.3975176,7.9177009 4.5721951,8.654775 3.3234932,9.7675049 3.0544251,11 Z m 0,1 c 0.2690681,1.232495 1.51777,2.345225 3.3430925,3.082299 C 6.1744683,14.121388 6.0392807,13.083478 6.0073498,12 Z M 14.550775,3.5637757 c 0.708937,0.8098164 1.296843,1.895921 1.718813,3.1666363 1.270715,0.4219704 2.35682,1.0098763 3.166636,1.7188133 C 18.574509,6.2086514 16.791349,4.4254907 14.550775,3.5637757 Z m -6.1015497,0 C 6.2086514,4.4254907 4.4254907,6.2086514 3.5637757,8.4492253 4.3735921,7.7402883 5.4596967,7.1523824 6.730412,6.730412 7.1523824,5.4596967 7.7402883,4.3735921 8.4492253,3.5637757 Z m 0,15.8724483 C 7.7402883,18.626408 7.1523824,17.540303 6.730412,16.269588 5.4596967,15.847618 4.3735921,15.259712 3.5637757,14.550775 c 0.861715,2.240574 2.6448757,4.023734 4.8854496,4.885449 z m 6.1015497,0 c 2.240574,-0.861715 4.023734,-2.644875 4.885449,-4.885449 -0.809816,0.708937 -1.895921,1.296843 -3.166636,1.718813 -0.42197,1.270715 -1.009876,2.35682 -1.718813,3.166636 z M 21,11.5 C 21,16.747142 16.747142,21 11.5,21 6.2528576,21 2,16.747142 2,11.5 2,6.2528576 6.2528576,2 11.5,2 16.747142,2 21,6.2528576 21,11.5 Z" />
  </g>
</svg>
