<?xml version="1.0" encoding="UTF-8" standalone="no"?>
<!-- Created with Inkscape (http://www.inkscape.org/) -->

<svg
   xmlns:dc="http://purl.org/dc/elements/1.1/"
   xmlns:cc="http://creativecommons.org/ns#"
   xmlns:rdf="http://www.w3.org/1999/02/22-rdf-syntax-ns#"
   xmlns:svg="http://www.w3.org/2000/svg"
   xmlns="http://www.w3.org/2000/svg"
   xmlns:xlink="http://www.w3.org/1999/xlink"
   xmlns:sodipodi="http://sodipodi.sourceforge.net/DTD/sodipodi-0.dtd"
   xmlns:inkscape="http://www.inkscape.org/namespaces/inkscape"
   width="512"
   height="512"
   viewBox="0 0 512 512"
   version="1.1"
   id="svg8"
   inkscape:version="0.92.1 r15371"
   sodipodi:docname="CK rainbow 2.svg"
   inkscape:export-filename="D:\OneDrive\Pictures\JonPanTheAwesomeMan.png"
   inkscape:export-xdpi="96.000008"
   inkscape:export-ydpi="96.000008">
  <defs
     id="defs2">
    <linearGradient
       id="linearGradient6017-3"
       inkscape:collect="always">
      <stop
         id="stop6011"
         offset="0"
         style="stop-color:#ff4e21;stop-opacity:1" />
      <stop
         id="stop6015"
         offset="1"
         style="stop-color:#ffd621;stop-opacity:1" />
    </linearGradient>
    <linearGradient
       inkscape:collect="always"
       id="linearGradient4709">
      <stop
         style="stop-color:#21c2ff;stop-opacity:1"
         offset="0"
         id="stop4705" />
      <stop
         id="stop4713"
         offset="0.5"
         style="stop-color:#90a990;stop-opacity:1;" />
      <stop
         style="stop-color:#ff9021;stop-opacity:1"
         offset="1"
         id="stop4707" />
    </linearGradient>
    <linearGradient
       inkscape:collect="always"
       xlink:href="#linearGradient4709"
       id="linearGradient4711"
       x1="256"
       y1="225.53333"
       x2="256"
       y2="609.53333"
       gradientUnits="userSpaceOnUse"
       gradientTransform="translate(-60,-161.53332)" />
    <linearGradient
       inkscape:collect="always"
       xlink:href="#linearGradient6017-3"
       id="linearGradient6029"
       x1="240"
       y1="449.53333"
       x2="240"
       y2="321.53333"
       gradientUnits="userSpaceOnUse" />
    <linearGradient
       inkscape:collect="always"
       xlink:href="#linearGradient6017-3"
       id="linearGradient6036"
       gradientUnits="userSpaceOnUse"
       x1="240"
       y1="449.53333"
       x2="240"
       y2="321.53333"
       gradientTransform="matrix(1.5915198,0,0,1.5915198,139.50252,-193.23514)" />
    <linearGradient
       inkscape:collect="always"
       xlink:href="#linearGradient6017-3"
       id="linearGradient6040"
       gradientUnits="userSpaceOnUse"
       x1="240"
       y1="449.53333"
       x2="240"
       y2="321.53333" />
    <linearGradient
       inkscape:collect="always"
       xlink:href="#linearGradient6017-3"
       id="linearGradient4557"
       x1="256"
       y1="-6.401714e-006"
       x2="256"
       y2="512"
       gradientUnits="userSpaceOnUse" />
  </defs>
  <sodipodi:namedview
     id="base"
     pagecolor="#ffffff"
     bordercolor="#666666"
     borderopacity="1.0"
     inkscape:pageopacity="0.0"
     inkscape:pageshadow="2"
     inkscape:zoom="0.7"
     inkscape:cx="149.17146"
     inkscape:cy="191.54931"
     inkscape:document-units="px"
     inkscape:current-layer="text6021"
     showgrid="true"
     units="px"
     inkscape:window-width="1920"
     inkscape:window-height="1017"
     inkscape:window-x="-8"
     inkscape:window-y="-8"
     inkscape:window-maximized="1">
    <inkscape:grid
       type="xygrid"
       id="grid4485"
       empspacing="16" />
  </sodipodi:namedview>
  <metadata
     id="metadata5">
    <rdf:RDF>
      <cc:Work
         rdf:about="">
        <dc:format>image/svg+xml</dc:format>
        <dc:type
           rdf:resource="http://purl.org/dc/dcmitype/StillImage" />
        <dc:title></dc:title>
      </cc:Work>
    </rdf:RDF>
  </metadata>
  <g
     inkscape:label="Layer 1"
     inkscape:groupmode="layer"
     id="layer1"
     transform="translate(0,-161.53332)">
    <g
       aria-label="CK"
       style="font-style:normal;font-variant:normal;font-weight:normal;font-stretch:normal;font-size:16px;line-height:1.25;font-family:Arial;-inkscape-font-specification:Arial;letter-spacing:-85px;word-spacing:0px;fill:url(#linearGradient6040);fill-opacity:1;stroke:none"
       id="text6021"
       transform="matrix(2.1542777,0,0,2.1542777,-222.38425,-364.58614)">
      <path
         style="font-style:normal;font-variant:normal;font-weight:normal;font-stretch:normal;font-size:16px;line-height:1.25;font-family:Arial;-inkscape-font-specification:Arial;letter-spacing:-85px;word-spacing:0px;opacity:1;fill:#ff4e21;fill-opacity:1;stroke:none;stroke-width:1.85677087;stroke-linecap:round;stroke-linejoin:round;stroke-miterlimit:4;stroke-dasharray:none;stroke-dashoffset:0;stroke-opacity:1"
         id="path6157-0"
         r="74.270836"
         cy="318.49167"
         cx="177.5"
         d=""
         inkscape:connector-curvature="0" />
      <path
         style="color:#000000;font-style:normal;font-variant:normal;font-weight:normal;font-stretch:normal;font-size:medium;line-height:1.25;font-family:Arial;-inkscape-font-specification:Arial;font-variant-ligatures:normal;font-variant-position:normal;font-variant-caps:normal;font-variant-numeric:normal;font-variant-alternates:normal;font-feature-settings:normal;text-indent:0;text-align:start;text-decoration:none;text-decoration-line:none;text-decoration-style:solid;text-decoration-color:#000000;letter-spacing:-85px;word-spacing:0px;text-transform:none;writing-mode:lr-tb;direction:ltr;text-orientation:mixed;dominant-baseline:auto;baseline-shift:baseline;text-anchor:start;white-space:normal;shape-padding:0;clip-rule:nonzero;display:inline;overflow:visible;visibility:visible;opacity:1;isolation:auto;mix-blend-mode:normal;color-interpolation:sRGB;color-interpolation-filters:linearRGB;solid-color:#000000;solid-opacity:1;vector-effect:none;fill:url(#linearGradient4557);fill-opacity:1.0;fill-rule:nonzero;stroke:none;stroke-width:80;stroke-linecap:round;stroke-linejoin:miter;stroke-miterlimit:10;stroke-dasharray:none;stroke-dashoffset:0;stroke-opacity:1;color-rendering:auto;image-rendering:auto;shape-rendering:auto;text-rendering:auto;enable-background:accumulate"
         d="m 255.44922,56.103516 c -57.32983,0.237358 -113.77428,24.997451 -152.66016,71.339844 -62.21741,74.1478 -62.21741,182.96741 0,257.11523 62.21742,74.14783 169.3876,93.04303 253.21289,44.64649 A 40.004002,40.004002 0 1 0 316,359.92383 c -50.66323,29.25044 -114.32408,18.02519 -151.92773,-26.78906 -37.60363,-44.81428 -37.60363,-109.45723 0,-154.27149 C 201.67592,134.04901 265.33677,122.82769 316,152.07812 A 40.004002,40.004002 0 1 0 356.00195,82.796875 C 324.56747,64.648163 289.84711,55.961118 255.44922,56.103516 Z m 0.0254,14.957031 c 31.80974,-0.125379 63.92261,7.922126 93.02539,24.724609 a 25.0025,25.0025 0 1 1 -25.00195,43.300784 c -56.88112,-32.84033 -128.6973,-20.17565 -170.91602,30.13867 -42.21871,50.3143 -42.21871,123.23841 0,173.55273 42.21872,50.3143 114.0349,62.9751 170.91602,30.13477 A 25.0025,25.0025 0 1 1 348.5,416.21289 c -77.6074,44.80665 -176.61642,27.35091 -234.21875,-41.29687 -57.602305,-68.64779 -57.602327,-169.18623 0,-237.83399 C 150.28272,94.177158 202.4584,71.269512 255.47461,71.060547 Z M 255.5,86.019531 c -48.70262,0.180529 -96.61149,21.239699 -129.72852,60.707029 -52.987235,63.14774 -52.987235,155.39719 0,218.54492 52.98724,63.14774 143.84096,79.16989 215.23047,37.95313 A 10.001,10.001 0 1 0 331,385.90625 c -63.09901,36.43021 -143.07049,22.32606 -189.9043,-33.48828 -46.8338,-55.81436 -46.8338,-137.02355 0,-192.83789 C 187.92951,103.76572 267.90101,89.665467 331,126.0957 a 10.001253,10.001253 0 1 0 10.00195,-17.32226 C 314.23089,93.317163 284.72157,85.911171 255.5,86.019531 Z"
         transform="matrix(0.46419271,0,0,0.46419271,103.22915,244.22082)"
         id="path4511"
         inkscape:connector-curvature="0" />
    </g>
  </g>
</svg>
