<?xml version="1.0" encoding="UTF-8" standalone="no"?>
<!-- Created with Inkscape (http://www.inkscape.org/) -->

<svg
   xmlns:dc="http://purl.org/dc/elements/1.1/"
   xmlns:cc="http://creativecommons.org/ns#"
   xmlns:rdf="http://www.w3.org/1999/02/22-rdf-syntax-ns#"
   xmlns:svg="http://www.w3.org/2000/svg"
   xmlns="http://www.w3.org/2000/svg"
   xmlns:sodipodi="http://sodipodi.sourceforge.net/DTD/sodipodi-0.dtd"
   xmlns:inkscape="http://www.inkscape.org/namespaces/inkscape"
   width="232"
   height="232"
   viewBox="0 0 231.99998 231.99999"
   id="svg7436"
   version="1.1"
   inkscape:version="0.91 r13725"
   sodipodi:docname="avatar strokes.svg">
  <defs
     id="defs7438">
    <clipPath
       clipPathUnits="userSpaceOnUse"
       id="clipPath3004">
      <path
         d="m 234.887,383.879 29.192,0 0,-80.812 -29.192,0 0,80.812 z"
         id="path3006"
         inkscape:connector-curvature="0" />
    </clipPath>
  </defs>
  <sodipodi:namedview
     id="base"
     pagecolor="#ffffff"
     bordercolor="#666666"
     borderopacity="1.0"
     inkscape:pageopacity="0.0"
     inkscape:pageshadow="2"
     inkscape:zoom="3.959798"
     inkscape:cx="24.343673"
     inkscape:cy="77.420565"
     inkscape:document-units="px"
     inkscape:current-layer="g8064"
     showgrid="false"
     fit-margin-top="0"
     fit-margin-left="0"
     fit-margin-right="0"
     fit-margin-bottom="0"
     units="px"
     inkscape:window-width="1920"
     inkscape:window-height="1017"
     inkscape:window-x="-8"
     inkscape:window-y="-8"
     inkscape:window-maximized="1" />
  <metadata
     id="metadata7441">
    <rdf:RDF>
      <cc:Work
         rdf:about="">
        <dc:format>image/svg+xml</dc:format>
        <dc:type
           rdf:resource="http://purl.org/dc/dcmitype/StillImage" />
        <dc:title />
      </cc:Work>
    </rdf:RDF>
  </metadata>
  <g
     inkscape:label="Layer 1"
     inkscape:groupmode="layer"
     id="layer1"
     transform="translate(-225.46778,-177.75196)">
    <g
       id="g8064"
       transform="matrix(2.0212801,0,0,2.0212669,-230.26574,-418.46609)">
      <path
         d="m 282.85777,409.7512 c 31.60875,0 57.38875,-25.78 57.38875,-57.38875 0,-31.60875 -25.78,-57.39 -57.38875,-57.39 -31.60875,0 -57.39,25.78125 -57.39,57.39 0,31.60875 25.78125,57.38875 57.39,57.38875"
         style="opacity:0.98999999;fill:#5ebe79;fill-opacity:0.99215686;fill-rule:evenodd;stroke:none;stroke-width:1.25;stroke-opacity:1"
         id="path2938"
         inkscape:connector-curvature="0" />
      <path
         inkscape:connector-curvature="0"
         style="fill:#497193;fill-opacity:1;fill-rule:evenodd;stroke:none;stroke-linecap:round;stroke-linejoin:round;stroke-opacity:1"
         d="m 255.49786,389.72273 c -3.96625,-0.10249 -7.82122,1.86763 -9.22122,6.71763 l -0.0338,0.11403 c 9.9375,8.24249 22.69682,13.19755 36.61432,13.19755 13.87125,0 26.58968,-4.92087 36.51093,-13.10962 l -0.0589,-0.20196 c -1.39875,-4.85 -5.25429,-6.82012 -9.21929,-6.71763 l -9.9e-4,0 -14.76574,0 0,9.9e-4 c 0,6.8425 -5.59809,12.44095 -12.44184,12.44095 -6.8425,0 -12.44183,-5.59845 -12.44183,-12.44095 l 0,-9.9e-4 -14.94161,0 z"
         id="path2950" />
      <path
         d="m 260.2119,405.10645 45.29,0 c -3.49625,1.50375 -7.17375,2.67125 -10.98875,3.46 l -23.31125,0 c -3.815,-0.78875 -7.4925,-1.95625 -10.99,-3.46"
         style="fill:#779ab9;fill-opacity:1;fill-rule:evenodd;stroke:none;stroke-width:1.2502017;stroke-linecap:round;stroke-linejoin:round;stroke-miterlimit:4;stroke-dasharray:none;stroke-opacity:1"
         id="path2954"
         inkscape:connector-curvature="0" />
      <path
         inkscape:connector-curvature="0"
         style="fill:#779ab9;fill-opacity:1;fill-rule:evenodd;stroke:none;stroke-width:1.25;stroke-linecap:round;stroke-linejoin:round;stroke-opacity:1"
         d="m 287.217,401.33751 25.5678,0 c 1.73875,-1.065 3.41466,-2.2221 5.02466,-3.45835 l -25.61998,0 c -0.18012,0.20518 -0.32783,0.438 -0.52082,0.63099 -0.56375,0.56374 -1.18052,1.07359 -1.8427,1.52191 -0.66218,0.4483 -1.36965,0.83496 -2.11326,1.15084 -0.15808,0.0671 -0.3344,0.0939 -0.4957,0.15461 z"
         id="path8246" />
      <path
         inkscape:connector-curvature="0"
         style="fill:#779ab9;fill-opacity:1;fill-rule:evenodd;stroke:none;stroke-width:1.25;stroke-linecap:round;stroke-linejoin:round;stroke-opacity:1"
         d="m 273.57311,397.87916 -25.66829,0 c 1.61,1.23625 3.2862,2.39335 5.0237,3.45835 l 25.61804,0 c -0.16129,-0.0607 -0.33763,-0.0875 -0.4957,-0.15461 -0.74358,-0.31588 -1.45107,-0.70254 -2.11326,-1.15084 -0.6622,-0.44832 -1.27891,-0.95817 -1.8427,-1.52191 -0.1931,-0.19308 -0.34157,-0.4257 -0.52179,-0.63099 z"
         id="path8244" />
      <path
         inkscape:connector-curvature="0"
         style="fill:#779ab9;fill-opacity:1;fill-rule:evenodd;stroke:none;stroke-width:1.00016141;stroke-linecap:round;stroke-linejoin:round;stroke-miterlimit:4;stroke-dasharray:none;stroke-opacity:1"
         d="m 294.48053,394.10871 23.85362,0 c -0.9275,-1.61625 -2.2129,-2.75027 -3.68539,-3.46027 l -19.41936,0 c -0.0401,0.529 -0.0555,1.06513 -0.1604,1.57408 -0.13464,0.65356 -0.35498,1.2737 -0.58847,1.88619 z"
         id="path8229" />
      <path
         inkscape:connector-curvature="0"
         style="fill:#779ab9;fill-opacity:1;fill-rule:evenodd;stroke:none;stroke-width:1.00016141;stroke-linecap:round;stroke-linejoin:round;stroke-miterlimit:4;stroke-dasharray:none;stroke-opacity:1"
         d="m 270.53319,390.64844 -19.59521,0 c -1.4725,0.71 -2.76011,1.84402 -3.68636,3.46027 l 24.03044,0 c -0.23353,-0.61249 -0.4538,-1.23263 -0.58847,-1.88619 -0.10486,-0.50895 -0.12034,-1.04508 -0.1604,-1.57408 z"
         id="path8227" />
      <path
         style="fill:#fbd9bd;fill-opacity:1;fill-rule:evenodd;stroke:none"
         d="m 270.43946,381.27061 0,8.45309 c 0,6.8425 5.59934,12.44095 12.44184,12.44095 6.84375,0 12.44183,-5.59845 12.44183,-12.44095 l 0,-8.45115 c -4.50122,3.18886 -9.29653,5.78226 -12.44087,5.78226 -3.14476,0 -7.94105,-2.59474 -12.4428,-5.7842 z"
         id="path2966"
         inkscape:connector-curvature="0" />
      <path
         inkscape:connector-curvature="0"
         id="path8200"
         d="m 270.43946,381.25129 0,5.18026 c 4.70862,3.385 9.24615,5.28077 12.44184,5.28077 3.19567,0 7.73447,-1.89577 12.44183,-5.28077 l 0,-5.1793 c -0.92973,0.65873 -1.86521,1.31763 -2.80318,1.90746 -1.2014,0.75547 -2.39571,1.43957 -3.54625,2.01664 -1.15055,0.57706 -2.25702,1.04688 -3.28439,1.37213 -1.02737,0.32524 -1.97518,0.50633 -2.80705,0.50633 -0.83187,0 -1.77968,-0.18109 -2.80705,-0.50633 -1.02736,-0.32525 -2.13384,-0.79507 -3.28439,-1.37213 -1.15054,-0.57707 -2.34485,-1.26117 -3.54625,-2.01664 -0.93856,-0.5902 -1.87481,-1.24925 -2.80511,-1.90842 z"
         style="fill:#ecc2a0;fill-opacity:1;fill-rule:evenodd;stroke:none" />
      <path
         inkscape:connector-curvature="0"
         style="fill:#fbd9bd;fill-opacity:1;fill-rule:evenodd;stroke:none;stroke-opacity:1"
         d="m 282.88226,317.36329 c -23.75096,0 -28.88332,16.5454 -28.45601,31.31737 -1.05268,-0.85833 -2.1911,-1.22394 -3.20129,-0.89091 -2.1625,0.71125 -2.91644,4.31884 -1.68519,8.05884 1.23125,3.73875 3.98111,6.19106 6.14361,5.47981 0.11063,-0.0364 0.21569,-0.085 0.31888,-0.13624 1.11808,5.14047 2.52423,8.92999 3.18969,9.91024 2.9675,4.37 17.03531,15.95244 23.69031,15.95244 6.655,0 20.72282,-11.58244 23.69032,-15.95244 0.66357,-0.97746 2.06261,-4.74954 3.17906,-9.86773 0.0727,0.0322 0.14308,0.0686 0.21935,0.0937 2.1625,0.71125 4.91236,-1.74106 6.14361,-5.47981 1.23125,-3.74 0.47702,-7.34759 -1.68423,-8.05884 -0.97497,-0.32142 -2.06957,0.006 -3.09113,0.80105 0.40372,-14.74918 -4.75477,-31.22751 -28.45698,-31.22751 z"
         id="path2974" />
      <g
         transform="matrix(1.25,0,0,-1.25,269.67477,366.74708)"
         id="g2976">
        <path
           inkscape:connector-curvature="0"
           style="fill:#ecc2a0;fill-opacity:1;fill-rule:evenodd;stroke:none"
           d="m 89.355469,145.07617 c 8.049749,29.71768 47.321731,28.83085 53.390621,0 -6.98352,5.17697 -46.407098,5.48016 -53.390621,0 z m 8.292969,5.20508 c 4.815702,2.87778 31.989562,2.7186 36.802732,0 -4.18152,15.13676 -31.25432,15.60418 -36.802732,0 z"
           transform="matrix(0.39578874,0,0,-0.39579133,-35.365599,57.419704)"
           id="path2978" />
      </g>
      <g
         transform="matrix(1.25,0,0,-1.25,273.77815,369.32283)"
         id="g2980" />
      <path
         d="m 260.15144,343.16558 c -2.44745,3.035 -3.95932,5.3225 -4.49821,14.88125 -1.96968,-11.93875 -5.23918,-28.73625 2.6358,-39.54875 5.36143,-7.36125 32.49914,-16.09875 43.66982,-3.05875 18.81739,0.2775 9.78979,33.815 8.70577,40.48 -0.70354,-15.33875 -8.87916,-13.56625 -13.04431,-24.8275 -5.65332,3.95625 -16.88014,11.1025 -37.46887,12.07375"
         style="fill:#ffc55d;fill-opacity:1;fill-rule:evenodd;stroke:none;stroke-width:0.98947507;stroke-miterlimit:4;stroke-dasharray:none;stroke-opacity:1"
         id="path2994"
         inkscape:connector-curvature="0" />
      <path
         inkscape:connector-curvature="0"
         id="path2982"
         style="fill:#ffffff;fill-opacity:1;fill-rule:evenodd;stroke:none"
         d="m 273.77815,369.32282 c 2.3825,1.42375 15.82625,1.345 18.2075,0 -2.06875,7.48875 -15.4625,7.72 -18.2075,0" />
    </g>
  </g>
</svg>
